<?xml version="1.0" standalone="no"?>
<!DOCTYPE svg PUBLIC "-//W3C//DTD SVG 20010904//EN"
 "http://www.w3.org/TR/2001/REC-SVG-20010904/DTD/svg10.dtd">
<svg version="1.0" xmlns="http://www.w3.org/2000/svg"
 width="392.000000pt" height="90.000000pt" viewBox="0 0 392.000000 90.000000"
 preserveAspectRatio="xMidYMid meet">

<g transform="translate(0.000000,90.000000) scale(0.100000,-0.100000)"
fill="#000000" stroke="none">
<path d="M3025 675 c-14 -13 -25 -33 -25 -43 0 -24 37 -72 56 -72 11 0 14 -22
14 -114 0 -66 4 -117 10 -121 6 -4 10 36 10 112 0 107 2 119 20 131 22 14 27
61 8 80 -19 19 -56 14 -68 -8 -12 -23 2 -27 20 -5 17 20 27 19 41 -6 9 -18 7
-25 -10 -42 -17 -17 -24 -19 -45 -9 -30 13 -42 52 -26 81 10 20 19 21 153 21
154 0 167 -4 167 -52 0 -38 -39 -64 -70 -48 -18 10 -21 9 -18 -2 8 -22 64 -22
87 1 28 28 26 67 -4 96 -23 24 -29 25 -160 25 -131 0 -137 -1 -160 -25z"/>
<path d="M891 667 c-17 -9 -30 -34 -51 -97 -62 -191 -114 -307 -141 -315 -39
-13 -17 -25 46 -25 37 0 65 4 65 10 0 6 -7 10 -15 10 -25 0 -27 22 -7 80 l19
55 71 3 71 3 10 -38 c17 -61 14 -94 -9 -100 -47 -12 -14 -23 72 -23 91 0 98 3
57 24 -25 12 -58 100 -113 301 -18 65 -37 120 -42 122 -5 1 -20 -3 -33 -10z
m43 -219 l6 -28 -60 0 c-33 0 -60 2 -60 4 0 3 14 44 32 93 l31 87 22 -64 c12
-36 25 -77 29 -92z"/>
<path d="M2349 669 c-20 -8 -30 -24 -48 -82 -13 -39 -44 -126 -69 -191 -37
-95 -52 -123 -74 -135 -15 -9 -28 -19 -28 -23 0 -5 32 -8 70 -8 74 0 85 5 45
20 -13 5 -23 15 -21 22 3 7 12 37 21 66 l17 52 72 0 73 0 12 -55 c13 -59 5
-85 -26 -85 -8 0 -11 -4 -8 -10 3 -5 47 -10 98 -10 54 0 87 4 82 9 -6 5 -18
11 -29 13 -22 4 -56 90 -112 291 -21 75 -41 137 -44 136 -3 0 -17 -5 -31 -10z
m24 -166 l25 -83 -63 0 -63 0 32 89 c17 50 34 87 37 83 4 -4 18 -44 32 -89z"/>
<path d="M3530 664 c-86 -37 -124 -105 -125 -224 0 -73 4 -92 25 -130 74 -133
286 -113 345 33 36 89 18 225 -38 286 -46 50 -137 65 -207 35z m127 -45 c49
-46 67 -97 67 -184 -1 -104 -27 -169 -72 -178 -80 -16 -152 42 -172 139 -19
89 5 209 48 242 26 20 98 9 129 -19z"/>
<path d="M154 655 c11 -8 25 -15 31 -15 7 0 10 -12 8 -27 -21 -165 -44 -304
-54 -326 -7 -15 -20 -29 -31 -32 -40 -13 -14 -25 53 -25 44 0 68 4 64 10 -3 6
-15 10 -26 10 -13 0 -19 7 -19 23 0 29 39 320 44 324 4 4 96 -336 96 -355 0
-16 65 -16 77 1 5 6 29 87 54 180 24 92 47 167 50 167 6 0 39 -238 39 -283 0
-15 -9 -36 -21 -48 -11 -11 -19 -23 -16 -25 2 -3 40 -3 83 -1 54 2 72 6 57 11
-12 4 -24 18 -27 29 -4 19 -40 262 -49 339 -3 23 1 28 25 33 50 11 30 25 -36
25 l-65 0 -15 -52 c-8 -29 -31 -115 -52 -192 -31 -114 -39 -134 -47 -115 -9
25 -97 345 -97 354 0 3 -33 5 -72 5 -66 -1 -71 -2 -54 -15z"/>
<path d="M1140 660 c0 -5 11 -10 24 -10 23 0 25 -4 31 -76 8 -83 2 -269 -10
-296 -4 -10 -15 -20 -26 -23 -44 -14 -13 -25 71 -25 86 0 115 11 68 26 -13 4
-26 12 -30 18 -11 16 -10 156 1 156 5 0 16 3 25 6 10 4 22 -9 42 -48 63 -125
115 -173 175 -161 25 5 25 5 -25 57 -28 29 -64 78 -80 108 l-30 55 33 29 c68
61 47 160 -37 184 -48 13 -232 13 -232 0z m199 -25 c34 -17 41 -33 41 -86 0
-53 -35 -89 -85 -89 l-35 0 0 79 c0 44 3 86 6 95 8 20 36 20 73 1z"/>
<path d="M1595 660 c3 -5 12 -10 18 -10 38 -1 39 -13 17 -170 -22 -159 -38
-216 -65 -226 -35 -14 -11 -24 56 -24 44 0 68 4 64 10 -3 5 -17 10 -31 10 -29
0 -28 -15 0 190 l23 165 21 -70 c19 -64 43 -152 72 -263 11 -42 12 -43 48 -40
l37 3 49 183 c27 100 51 181 53 179 7 -8 33 -215 33 -269 0 -47 -4 -59 -22
-72 -12 -9 -19 -18 -16 -21 3 -3 43 -5 89 -3 73 3 81 4 58 15 -22 10 -27 21
-38 85 -12 71 -41 284 -41 299 0 4 14 10 30 14 49 11 24 25 -43 25 l-62 0 -50
-185 c-27 -102 -53 -185 -56 -185 -6 0 -65 206 -91 318 l-13 52 -73 0 c-46 0
-71 -4 -67 -10z"/>
<path d="M2595 660 c3 -5 16 -10 29 -10 22 0 23 -3 28 -122 7 -170 -1 -245
-31 -270 -13 -10 -22 -21 -19 -24 3 -2 45 -3 94 -2 87 3 88 4 57 18 l-33 14 0
83 c0 46 4 83 9 83 5 0 16 3 25 6 10 4 22 -10 40 -49 55 -115 119 -175 174
-160 12 3 22 6 22 7 0 1 -21 24 -48 52 -26 27 -60 75 -77 106 l-29 57 27 21
c37 29 54 89 37 131 -21 51 -74 69 -203 69 -70 0 -106 -4 -102 -10z m199 -21
c32 -15 50 -60 43 -107 -8 -45 -38 -72 -83 -72 l-34 0 0 95 c0 94 0 95 25 95
13 0 35 -5 49 -11z"/>
<path d="M3248 641 c-9 -12 -29 -21 -53 -24 -36 -3 -34 -4 13 -5 39 -2 52 2
52 12 0 22 33 29 47 10 7 -10 16 -15 19 -11 12 11 -17 37 -42 37 -12 0 -29 -9
-36 -19z"/>
<path d="M3224 440 c0 -63 1 -89 3 -57 2 31 2 83 0 115 -2 31 -3 5 -3 -58z"/>
<path d="M3140 420 l0 -120 -38 0 c-49 0 -75 -19 -70 -51 l3 -24 153 -3 152
-3 0 30 c0 20 -7 34 -20 41 -18 10 -20 21 -20 125 0 70 -4 115 -10 115 -6 0
-10 -45 -10 -115 l0 -115 -45 0 c-25 0 -45 -4 -45 -10 0 -6 28 -10 64 -10 55
0 64 -3 69 -20 5 -19 0 -20 -134 -20 -131 0 -139 1 -139 19 0 17 8 20 53 23
l52 3 3 128 c2 82 -1 127 -8 127 -6 0 -10 -44 -10 -120z"/>
</g>
</svg>
